<svg xmlns="http://www.w3.org/2000/svg" x="0px" y="0px"
     width="612" height="612"
     viewBox="0 0 48 48"
     style=";fill:#000000;"
     class="icon icons8-openstack"><g id="surface1"><path style=" fill:#D32F2F;" d="M 35 34.75 L 30.589844 29.785156 C 30.421875 29.910156 30.226563 30 30 30 L 17 30.929688 L 17 31.65625 L 15 31.851563 L 15 37 L 35 37 Z "></path><path style=" fill:#D32F2F;" d="M 36.539063 5.667969 C 35 4.445313 34.148438 4.070313 33.042969 4.070313 L 7 6 C 6.449219 6 5.949219 6.222656 5.585938 6.585938 L 10.585938 11.585938 C 10.949219 11.222656 11.449219 11 12 11 L 40 9 C 40.40625 9 40.785156 9.125 41.105469 9.335938 Z "></path><path style=" fill:#B71C1C;" d="M 36.417969 14.59375 L 31 15 L 31 23 L 42 23.53125 L 42 19.445313 Z "></path><path style=" fill:#B71C1C;" d="M 35 20 L 31 16 L 31 26.0625 L 35 30.0625 Z "></path><path style=" fill:#B71C1C;" d="M 5 8 L 5 15.28125 L 10 20.28125 L 10 13 C 10 12.445313 10.222656 11.945313 10.585938 11.585938 L 5.585938 6.585938 C 5.222656 6.945313 5 7.445313 5 8 Z "></path><path style=" fill:#B71C1C;" d="M 37.75 27.75 L 31.003906 28.023438 L 31 28.019531 L 31 29 C 31 29.328125 30.710938 29.917969 30 30 L 34.816406 34.546875 C 34.921875 34.386719 42 33.40625 42 33.40625 L 42 31.402344 Z "></path><path style=" fill:#B71C1C;" d="M 17 25.75 L 5 25.75 L 5 17.414063 L 11.417969 16.8125 L 17 21.664063 Z "></path><path style=" fill:#B71C1C;" d="M 17 35.625 L 5 35.625 L 5 29.375 L 11.417969 28.773438 L 17 33.625 Z "></path><path style=" fill:#B71C1C;" d="M 10 22.289063 L 5 17.414063 L 5 27.28125 L 10 32.28125 Z "></path><path style=" fill:#B71C1C;" d="M 5 8 L 5 15.28125 L 10 20.28125 L 10 13 C 10 12.445313 10.222656 11.945313 10.585938 11.585938 L 5.585938 6.585938 C 5.222656 6.945313 5 7.445313 5 8 Z "></path><path style=" fill:#B71C1C;" d="M 10 41 L 10 34.289063 L 5 29.414063 L 5 35 C 5 36.105469 5 37 6 38 L 10.464844 42.269531 C 10.179688 41.921875 10 41.484375 10 41 Z "></path><path style=" fill:#F44336;" d="M 35 20.058594 L 35 30.050781 L 42 29.425781 L 42 19.433594 Z "></path><path style=" fill:#F44336;" d="M 10 22.289063 L 10 32.28125 L 17 31.65625 L 17 21.664063 Z "></path><path style=" fill:#F44336;" d="M 17 19.65625 L 17 18 C 17 17.445313 17.449219 17 18 17 L 34 16 C 34.554688 16 35 16.445313 35 17 L 35 18.050781 L 42 17.425781 L 42 11 C 42 9.898438 41.105469 9 40 9 L 12 11 C 10.894531 11 10 11.894531 10 13 L 10 20.28125 Z "></path><path style=" fill:#F44336;" d="M 35 32.058594 L 35 34 C 35 34.554688 34.554688 35 34 35 L 18 36 C 17.449219 36 17 35.554688 17 35 L 17 33.664063 L 10 34.289063 L 10 41 C 10 42.105469 10.894531 43 12 43 L 40 41 C 41.105469 41 42 40.105469 42 39 L 42 31.433594 Z "></path></g></svg>